<svg enable-background="new 0 0 32 32" height="512" viewBox="0 0 32 32" width="512" xmlns="http://www.w3.org/2000/svg"><g id="BG" fill="#ffe6e2"><path d="m26 32h-20c-3.314 0-6-2.686-6-6v-20c0-3.314 2.686-6 6-6h20c3.314 0 6 2.686 6 6v20c0 3.314-2.686 6-6 6z"/><path d="m26 32h-20c-3.314 0-6-2.686-6-6v-20c0-3.314 2.686-6 6-6h20c3.314 0 6 2.686 6 6v20c0 3.314-2.686 6-6 6z"/></g><g id="bold" fill="#fc573b"><path d="m21.654 11.211c-.12 0-.241-.043-.337-.131-1.472-1.341-3.36-2.08-5.317-2.08s-3.845.739-5.317 2.08c-.204.186-.521.171-.706-.033-.186-.204-.172-.521.033-.706 1.656-1.51 3.783-2.341 5.99-2.341s4.334.831 5.991 2.341c.204.186.219.502.033.706-.099.109-.235.164-.37.164z"/><path d="m22.5 14.478c-.161 0-.319-.077-.415-.221-1.388-2.067-3.663-3.3-6.085-3.3s-4.697 1.234-6.085 3.3c-.154.23-.465.291-.694.136-.229-.154-.29-.465-.136-.694 1.574-2.344 4.159-3.743 6.915-3.743s5.341 1.399 6.915 3.743c.154.229.093.54-.136.694-.086.058-.183.085-.279.085z"/><path d="m14.421 24c-.129 0-.257-.049-.355-.148-.109-.11-2.672-2.725-2.672-5.243 0-2.613 2.066-4.739 4.606-4.739s4.606 2.126 4.606 4.739c0 .276-.224.5-.5.5s-.5-.224-.5-.5c0-2.062-1.618-3.739-3.606-3.739s-3.606 1.677-3.606 3.739c0 2.111 2.358 4.515 2.382 4.539.194.196.193.513-.003.707-.098.097-.225.145-.352.145z"/><path d="m17.579 24c-1.202 0-3.991-2.288-4.261-4.836-.095-.9.191-1.822.766-2.465.5-.559 1.175-.869 1.901-.873h.014c.708 0 1.378.278 1.886.784.532.529.825 1.239.825 1.998v.326c0 .803.626 1.456 1.395 1.456s1.395-.653 1.395-1.456v-.114c0-3.114-2.256-5.703-5.135-5.896-1.502-.102-2.941.416-4.052 1.455-1.153 1.079-1.815 2.62-1.815 4.228 0 1.323.448 2.612 1.261 3.629.172.216.137.53-.078.703s-.53.138-.703-.078c-.954-1.194-1.48-2.704-1.48-4.253 0-1.884.777-3.691 2.132-4.958 1.315-1.23 3.021-1.843 4.802-1.723 3.403.228 6.068 3.256 6.068 6.894v.114c0 1.354-1.075 2.456-2.395 2.456-1.321 0-2.395-1.102-2.395-2.456v-.326c0-.492-.188-.95-.53-1.289-.32-.318-.739-.493-1.181-.493-.003 0-.006 0-.009 0-.563.003-.942.295-1.161.54-.39.436-.583 1.068-.517 1.692.221 2.078 2.61 3.941 3.267 3.941.276 0 .5.224.5.5s-.224.5-.5.5z"/><path d="m19.435 23.022c-1.789 0-3.974-2.187-3.974-4.739 0-.276.224-.5.5-.5s.5.224.5.5c0 1.979 1.663 3.739 2.974 3.739.276 0 .5.224.5.5s-.224.5-.5.5z"/></g></svg>